<mxfile host="app.diagrams.net" modified="2023-06-07T11:55:06.998Z" agent="Mozilla/5.0 (Windows NT 10.0; Win64; x64) AppleWebKit/537.36 (KHTML, like Gecko) Chrome/112.0.0.0 Safari/537.36" etag="1bwWHy8jBX1SJz1Jecaa" version="21.3.7" type="device">
  <diagram name="Page-1" id="edf60f1a-56cd-e834-aa8a-f176f3a09ee4">
    <mxGraphModel dx="838" dy="478" grid="1" gridSize="10" guides="1" tooltips="1" connect="1" arrows="1" fold="1" page="1" pageScale="1" pageWidth="1100" pageHeight="850" background="none" math="0" shadow="0">
      <root>
        <mxCell id="0" />
        <mxCell id="1" parent="0" />
        <mxCell id="CjoAOJpxIgilqA8hAzCj-15" value="" style="edgeStyle=orthogonalEdgeStyle;rounded=0;orthogonalLoop=1;jettySize=auto;html=1;" edge="1" parent="1" source="CjoAOJpxIgilqA8hAzCj-1" target="CjoAOJpxIgilqA8hAzCj-7">
          <mxGeometry relative="1" as="geometry" />
        </mxCell>
        <mxCell id="CjoAOJpxIgilqA8hAzCj-1" value="Begin" style="ellipse;whiteSpace=wrap;html=1;" vertex="1" parent="1">
          <mxGeometry x="260" y="200" width="120" height="50" as="geometry" />
        </mxCell>
        <mxCell id="CjoAOJpxIgilqA8hAzCj-2" value="Begin&lt;br&gt;&lt;span style=&quot;white-space: pre;&quot;&gt;&#x9;&lt;/span&gt;Input M, P, C&lt;br&gt;&lt;span style=&quot;white-space: pre;&quot;&gt;&#x9;&lt;/span&gt;Ave = (M+P+C)/3&lt;br&gt;&lt;span style=&quot;white-space: pre;&quot;&gt;&#x9;&lt;/span&gt;Display Ave&lt;br&gt;End" style="text;html=1;strokeColor=none;fillColor=none;align=left;verticalAlign=middle;whiteSpace=wrap;rounded=0;shadow=1;" vertex="1" parent="1">
          <mxGeometry x="460" y="160" width="160" height="120" as="geometry" />
        </mxCell>
        <mxCell id="CjoAOJpxIgilqA8hAzCj-16" value="" style="edgeStyle=orthogonalEdgeStyle;rounded=0;orthogonalLoop=1;jettySize=auto;html=1;" edge="1" parent="1" source="CjoAOJpxIgilqA8hAzCj-7" target="CjoAOJpxIgilqA8hAzCj-8">
          <mxGeometry relative="1" as="geometry" />
        </mxCell>
        <mxCell id="CjoAOJpxIgilqA8hAzCj-7" value="Input M, P, C" style="shape=parallelogram;perimeter=parallelogramPerimeter;whiteSpace=wrap;html=1;fixedSize=1;" vertex="1" parent="1">
          <mxGeometry x="260" y="290" width="120" height="60" as="geometry" />
        </mxCell>
        <mxCell id="CjoAOJpxIgilqA8hAzCj-17" value="" style="edgeStyle=orthogonalEdgeStyle;rounded=0;orthogonalLoop=1;jettySize=auto;html=1;" edge="1" parent="1" source="CjoAOJpxIgilqA8hAzCj-8" target="CjoAOJpxIgilqA8hAzCj-9">
          <mxGeometry relative="1" as="geometry" />
        </mxCell>
        <mxCell id="CjoAOJpxIgilqA8hAzCj-8" value="Ave = (M+P+C)/3" style="rounded=0;whiteSpace=wrap;html=1;" vertex="1" parent="1">
          <mxGeometry x="260" y="380" width="120" height="60" as="geometry" />
        </mxCell>
        <mxCell id="CjoAOJpxIgilqA8hAzCj-18" value="" style="edgeStyle=orthogonalEdgeStyle;rounded=0;orthogonalLoop=1;jettySize=auto;html=1;" edge="1" parent="1" source="CjoAOJpxIgilqA8hAzCj-9" target="CjoAOJpxIgilqA8hAzCj-10">
          <mxGeometry relative="1" as="geometry" />
        </mxCell>
        <mxCell id="CjoAOJpxIgilqA8hAzCj-9" value="Display Ave" style="shape=parallelogram;perimeter=parallelogramPerimeter;whiteSpace=wrap;html=1;fixedSize=1;" vertex="1" parent="1">
          <mxGeometry x="260" y="470" width="120" height="60" as="geometry" />
        </mxCell>
        <mxCell id="CjoAOJpxIgilqA8hAzCj-10" value="End" style="ellipse;whiteSpace=wrap;html=1;" vertex="1" parent="1">
          <mxGeometry x="260" y="560" width="120" height="50" as="geometry" />
        </mxCell>
        <mxCell id="CjoAOJpxIgilqA8hAzCj-19" value="&lt;h1&gt;Flowchart&lt;/h1&gt;" style="text;html=1;strokeColor=none;fillColor=none;spacing=5;spacingTop=-20;whiteSpace=wrap;overflow=hidden;rounded=0;" vertex="1" parent="1">
          <mxGeometry x="250" y="140" width="130" height="40" as="geometry" />
        </mxCell>
        <mxCell id="CjoAOJpxIgilqA8hAzCj-20" value="&lt;h1&gt;Pseudo-code&lt;/h1&gt;" style="text;html=1;strokeColor=none;fillColor=none;spacing=5;spacingTop=-20;whiteSpace=wrap;overflow=hidden;rounded=0;" vertex="1" parent="1">
          <mxGeometry x="460" y="140" width="170" height="40" as="geometry" />
        </mxCell>
      </root>
    </mxGraphModel>
  </diagram>
</mxfile>
